<svg width="22" height="22" viewBox="0 0 22 22" fill="none" xmlns="http://www.w3.org/2000/svg">
<g opacity="0.5">
<path fill-rule="evenodd" clip-rule="evenodd" d="M1.17163 1.17176C6.10352e-05 2.34333 6.10352e-05 4.22895 6.10352e-05 8.00018V13.9996C6.10352e-05 17.7708 6.10352e-05 19.6564 1.17163 20.828C2.34321 21.9996 4.22882 21.9996 8.00006 21.9996H13.9994C17.7707 21.9996 19.6563 21.9996 20.8279 20.828C21.9994 19.6564 21.9994 17.7708 21.9994 13.9996V8.00018C21.9994 5.06922 21.9994 3.27721 21.4494 2.07418V16.4997C20.393 16.4997 19.3798 16.08 18.6328 15.333L17.806 14.5062C16.878 13.5782 16.414 13.1143 15.8641 12.983C15.5587 12.91 15.2405 12.91 14.9351 12.983C14.3852 13.1143 13.9212 13.5782 12.9933 14.5062L12.9932 14.5062L12.8688 14.6307C12.1279 15.3715 11.7575 15.742 11.3521 15.7481C11.2148 15.7501 11.0785 15.7239 10.9517 15.671C10.5776 15.5147 10.3713 15.0332 9.95852 14.0702L9.89978 13.9331C8.96523 11.7525 8.49796 10.6622 7.61064 10.3906C7.47433 10.3489 7.33396 10.3218 7.19191 10.3099C6.26717 10.2326 5.42839 11.0714 3.75083 12.7489L1.65001 14.8498V0.782898C1.4777 0.895532 1.31902 1.02437 1.17163 1.17176Z" fill="#7D7D7D"/>
<path d="M1 8C1 6.08611 1.00212 4.75129 1.13753 3.74416C1.26907 2.76579 1.50966 2.2477 1.87868 1.87868C2.2477 1.50966 2.76579 1.26907 3.74416 1.13753C4.75129 1.00212 6.08611 1 8 1H13.9994C15.9133 1 17.2481 1.00212 18.2552 1.13753C19.2336 1.26907 19.7517 1.50966 20.1207 1.87868C20.4897 2.2477 20.7303 2.76579 20.8618 3.74416C20.9972 4.75129 20.9994 6.08611 20.9994 8V13.9994C20.9994 15.9133 20.9972 17.2481 20.8618 18.2552C20.7303 19.2336 20.4897 19.7517 20.1207 20.1207C19.7517 20.4897 19.2336 20.7303 18.2552 20.8618C17.2481 20.9972 15.9133 20.9994 13.9994 20.9994H8C6.08611 20.9994 4.75129 20.9972 3.74416 20.8618C2.76579 20.7303 2.2477 20.4897 1.87868 20.1207C1.50966 19.7517 1.26907 19.2336 1.13753 18.2552C1.00212 17.2481 1 15.9133 1 13.9994V8Z" stroke="#7D7D7D" stroke-width="2"/>
<circle cx="14.2996" cy="7.69975" r="2.19994" fill="#7D7D7D"/>
</g>
</svg>
